<svg width="24" height="24" viewBox="0 0 24 24" fill="none" xmlns="http://www.w3.org/2000/svg">
<g clip-path="url(#clip0_1163_161)">
<path d="M6.18 6.38H17.87V9.06H6.17L6.18 6.38ZM13.45 10.18V13.32C13.45 16.55 13.43 17.06 13.31 17.68C13.0725 18.7138 12.6305 19.6896 12.01 20.55C11.98 20.55 11.23 19.2 11.11 18.93C10.94 18.53 10.81 18.13 10.71 17.68L10.62 17.27L10.6 11.49L10.76 11.29C11.0673 10.9464 11.4432 10.671 11.8635 10.4815C12.2837 10.2921 12.739 10.1928 13.2 10.19L13.45 10.18ZM12 0C8.8174 0 5.76516 1.26428 3.51472 3.51472C1.26428 5.76516 0 8.8174 0 12C0 15.1826 1.26428 18.2348 3.51472 20.4853C5.76516 22.7357 8.8174 24 12 24C15.1826 24 18.2348 22.7357 20.4853 20.4853C22.7357 18.2348 24 15.1826 24 12C24 8.8174 22.7357 5.76516 20.4853 3.51472C18.2348 1.26428 15.1826 0 12 0Z" fill="#009FD9"/>
</g>
<defs>
<clipPath id="clip0_1163_161">
<rect width="24" height="24" fill="white"/>
</clipPath>
</defs>
</svg>
